<svg id="レイヤー_1" data-name="レイヤー 1" xmlns="http://www.w3.org/2000/svg" viewBox="0 0 7466.46 1525.04"><defs><style>.cls-1{fill:#fff;}.cls-2{fill:#0f8c42;}.cls-3{fill:#e60012;}</style></defs><g id="デザイン"><rect class="cls-1" width="7466.46" height="1525.04"/><path class="cls-1" d="M2408.6,883.43v19.34h-17.51V883.43Zm0,51.59v132.39h-17.51V935Z" transform="translate(-235.28 -229.61)"/><path class="cls-1" d="M2508.11,935l15.06,12.29q15-15.64,37.47-15.66,22.13,0,37.47,15.35a50.59,50.59,0,0,1,15.36,37.18v83.23h-17.81V984.18a35.26,35.26,0,0,0-10.14-24.89,32.94,32.94,0,0,0-11.06-7.22,36.76,36.76,0,0,0-13.82-2.61,34.52,34.52,0,0,0-24.88,10.14,33.46,33.46,0,0,0-10.14,24.58v83.23h-17.51Z" transform="translate(-235.28 -229.61)"/><path class="cls-1" d="M2760.91,1137.76q22.41,0,37.79-15,15.66-14.76,15.66-38.09v-36.56q-21.2,23.34-52.22,23.35-28.56,0-49.14-20.58t-20.58-49.45q0-28.89,20.58-49.15,20.58-20.58,49.14-20.58,29.79,0,50.37,21.5l19.67-18.2v149.6q0,29.78-21.2,50.37-20.58,20.58-50.07,20.59-35,0-56.51-27.65l13.51-11.06Q2733.27,1137.74,2760.91,1137.76Zm-35.63-173.25q-15.06,15-15,36.87,0,22.11,15,37.16t36.86,15q21.81,0,36.86-15a50.61,50.61,0,0,0,15.36-37.16q0-21.2-15.36-36.56a50.27,50.27,0,0,0-36.86-15.36Q2740.33,949.46,2725.28,964.51Z" transform="translate(-235.28 -229.61)"/><path class="cls-1" d="M3048.42,1034.55a67.17,67.17,0,0,1-25.18,26.72,68.33,68.33,0,0,1-36.25,10.14q-28.57,0-49.14-20.58t-20.58-49.45q0-28.89,20.58-49.15,20.57-20.58,49.14-20.58a68,68,0,0,1,34.09,9.06q16,9.06,24.89,22.89l-90.31,79.55q13.2,10.45,31.33,10.44a50.52,50.52,0,0,0,27.18-7.53,51.9,51.9,0,0,0,18.89-20.41Zm-27.34-72.5A51.72,51.72,0,0,0,2987,949.46q-21.81,0-36.86,15t-15,36.87a52.41,52.41,0,0,0,8.6,29.18Z" transform="translate(-235.28 -229.61)"/><path class="cls-1" d="M3137.19,935l15,12.29q15.06-15.64,37.48-15.66,22.11,0,37.47,15.35a50.67,50.67,0,0,1,15.36,37.18v83.23h-17.82V984.18a35.21,35.21,0,0,0-10.13-24.89,33.08,33.08,0,0,0-11.07-7.22,36.67,36.67,0,0,0-13.81-2.61,34.43,34.43,0,0,0-24.88,10.14,33.47,33.47,0,0,0-10.15,24.58v83.23h-17.5Z" transform="translate(-235.28 -229.61)"/><path class="cls-1" d="M3353.12,883.43v19.34h-17.51V883.43Zm0,51.59v132.39h-17.51V935Z" transform="translate(-235.28 -229.61)"/><path class="cls-1" d="M3560.76,952.23q20.56,20.26,20.58,49.15t-20.58,49.45q-20.28,20.58-49.46,20.58-28.56,0-49.14-20.58t-20.58-49.45q0-28.89,20.58-49.15,20.58-20.58,49.14-20.58Q3540.48,931.65,3560.76,952.23Zm-86.32,12.28q-15.06,15-15,36.87,0,22.11,15,37.16t36.86,15q21.81,0,36.86-15a50.61,50.61,0,0,0,15.36-37.16q0-21.2-15.36-36.56a50.27,50.27,0,0,0-36.86-15.36Q3489.51,949.46,3474.44,964.51Z" transform="translate(-235.28 -229.61)"/><path class="cls-1" d="M3768.71,1067.41l-15.37-12.28q-15,16-37.46,16T3678.4,1056q-15.06-15-15.05-37.77V935h17.5v83.25a35.13,35.13,0,0,0,35,35q15.66,0,25.18-10.44a35.41,35.41,0,0,0,9.83-24.57V935h17.82Z" transform="translate(-235.28 -229.61)"/><path class="cls-1" d="M3896.8,1052.36a23.61,23.61,0,0,0,23.65-23.57v-.08a23.54,23.54,0,0,0-4.76-14.59,21.39,21.39,0,0,0-11.83-8.14l-15.66-4.6a36.11,36.11,0,0,1-18.59-12.6,33,33,0,0,1-7.21-20.89A33.84,33.84,0,0,1,3872.53,943a35,35,0,0,1,56.88,11.37l-16.28,6.76q-3.69-10.44-15.67-10.45a16.19,16.19,0,0,0-12.28,5.22,17,17,0,0,0-4.92,12q0,12.9,12.59,16.29l15.67,4.6a40,40,0,0,1,21.5,14.43q8.31,10.77,8.3,25.5a41.22,41.22,0,0,1-12,29.49,39,39,0,0,1-13.21,8.61,43.83,43.83,0,0,1-16.28,3.07,39.67,39.67,0,0,1-21.35-6,44.82,44.82,0,0,1-15.51-16.13l15.36-8.6Q3881.75,1052.38,3896.8,1052.36Z" transform="translate(-235.28 -229.61)"/><path class="cls-1" d="M4297,967.89q-16.28-18.43-39.93-18.43-21.81,0-36.86,15t-15.05,36.87q0,22.11,15.05,37.16t36.86,15q23.34,0,38.7-17.51l14.44,11.06a70.4,70.4,0,0,1-23.66,18,68.93,68.93,0,0,1-29.48,6.3q-28.57,0-49.14-20.58t-20.58-49.45q0-28.89,20.58-49.15,20.57-20.58,49.14-20.58a66.9,66.9,0,0,1,53.75,25.19Z" transform="translate(-235.28 -229.61)"/><path class="cls-1" d="M4466.58,950.69a30.65,30.65,0,0,0-9.52-1.23,33.85,33.85,0,0,0-24.42,10.14,34.83,34.83,0,0,0-7.06,10.74,32.54,32.54,0,0,0-2.62,12.91v84.16h-17.51V935l14.75,12q14.74-15.35,36.86-15.35a45.37,45.37,0,0,1,17.51,3.07Z" transform="translate(-235.28 -229.61)"/><path class="cls-1" d="M4680.06,1034.55a67.12,67.12,0,0,1-25.19,26.72,68.31,68.31,0,0,1-36.25,10.14q-28.56,0-49.14-20.58t-20.58-49.45q0-28.89,20.58-49.15,20.58-20.58,49.14-20.58a68,68,0,0,1,34.1,9.06q16,9.06,24.88,22.89l-90.3,79.55q13.2,10.45,31.32,10.44a50.56,50.56,0,0,0,27.19-7.53,51.83,51.83,0,0,0,18.89-20.41Zm-27.34-72.5a51.72,51.72,0,0,0-34.1-12.59q-21.81,0-36.86,15t-15,36.87a52.32,52.32,0,0,0,8.59,29.18Z" transform="translate(-235.28 -229.61)"/><path class="cls-1" d="M4824.42,1071.41q-28.56,0-49.14-20.58t-20.58-49.45q0-28.89,20.58-49.15,20.58-20.58,49.14-20.58,29.79,0,50.38,21.5L4894.47,935v132.39l-19.67-17.81Q4853.91,1071.41,4824.42,1071.41Zm-36.86-106.9q-15,15-15,36.87,0,22.11,15,37.16t36.86,15q21.83,0,36.86-15a50.58,50.58,0,0,0,15.37-37.16q0-21.2-15.37-36.56a50.27,50.27,0,0,0-36.86-15.36Q4802.63,949.46,4787.56,964.51Z" transform="translate(-235.28 -229.61)"/><path class="cls-1" d="M4982.62,952.84V935h23.95V897.86l17.82-8.6V935h23.35v17.82h-23.35v114.57h-17.82V952.84Z" transform="translate(-235.28 -229.61)"/><path class="cls-1" d="M5166,883.43v19.34h-17.5V883.43Zm0,51.59v132.39h-17.5V935Z" transform="translate(-235.28 -229.61)"/><path class="cls-1" d="M5378.24,935l-58.36,136.69L5261.83,935h19.35l38.7,90.63,39-90.63Z" transform="translate(-235.28 -229.61)"/><path class="cls-1" d="M5588,1034.55a67.12,67.12,0,0,1-25.19,26.72,68.31,68.31,0,0,1-36.25,10.14q-28.57,0-49.14-20.58t-20.58-49.45q0-28.89,20.58-49.15,20.57-20.58,49.14-20.58a68,68,0,0,1,34.09,9.06q16,9.06,24.89,22.89l-90.31,79.55q13.2,10.45,31.33,10.44a50.56,50.56,0,0,0,27.19-7.53,52,52,0,0,0,18.88-20.41Zm-27.35-72.5a51.72,51.72,0,0,0-34.09-12.59q-21.81,0-36.86,15t-15.05,36.87a52.41,52.41,0,0,0,8.6,29.18Z" transform="translate(-235.28 -229.61)"/><path class="cls-1" d="M5875.85,1067.41l-46.39-66.34v66.34H5812V847.49h17.5v149l38.1-61.44h20.89l-39,63.59,48.23,68.8Z" transform="translate(-235.28 -229.61)"/><path class="cls-1" d="M6009.45,883.43v19.34h-17.51V883.43Zm0,51.59v132.39h-17.51V935Z" transform="translate(-235.28 -229.61)"/><path class="cls-1" d="M6125.57,952.84V935h24V897.86l17.81-8.6V935h23.36v17.82h-23.36v114.57h-17.81V952.84Z" transform="translate(-235.28 -229.61)"/><path class="cls-1" d="M6390,967.89q-16.29-18.43-39.94-18.43-21.8,0-36.86,15t-15,36.87q0,22.11,15,37.16t36.86,15q23.35,0,38.71-17.51L6403.2,1047a70.27,70.27,0,0,1-23.65,18,69,69,0,0,1-29.49,6.3q-28.56,0-49.13-20.58t-20.58-49.45q0-28.89,20.58-49.15,20.57-20.58,49.13-20.58a66.91,66.91,0,0,1,53.76,25.19Z" transform="translate(-235.28 -229.61)"/><path class="cls-1" d="M6580.16,970.34a35,35,0,0,0-7.37-11.05,33.29,33.29,0,0,0-11.06-7.22,36.76,36.76,0,0,0-13.82-2.61A34.46,34.46,0,0,0,6523,959.6a33.46,33.46,0,0,0-10.14,24.58v83.23h-17.51V847.49h17.51v97.37a51.48,51.48,0,0,1,35-13.21q22.11,0,37.47,15.35a50.67,50.67,0,0,1,15.36,37.18v83.23h-17.82V984.18A34.79,34.79,0,0,0,6580.16,970.34Z" transform="translate(-235.28 -229.61)"/><path class="cls-1" d="M6820.05,1034.55a67.06,67.06,0,0,1-25.19,26.72,68.33,68.33,0,0,1-36.25,10.14q-28.56,0-49.14-20.58t-20.58-49.45q0-28.89,20.58-49.15,20.58-20.58,49.14-20.58a68,68,0,0,1,34.1,9.06q16,9.06,24.89,22.89l-90.31,79.55q13.2,10.45,31.32,10.44a50.56,50.56,0,0,0,27.19-7.53,51.83,51.83,0,0,0,18.89-20.41Zm-27.34-72.5a51.74,51.74,0,0,0-34.1-12.59q-21.79,0-36.86,15t-15,36.87a52.33,52.33,0,0,0,8.6,29.18Z" transform="translate(-235.28 -229.61)"/><path class="cls-1" d="M6915,935l15,12.31q15.06-15.64,37.48-15.66,22.11,0,37.47,15.35a50.67,50.67,0,0,1,15.36,37.18v83.23H7002.5V984.18a34.66,34.66,0,0,0-2.76-13.84,35,35,0,0,0-7.37-11.05,33.19,33.19,0,0,0-11.06-7.22,36.76,36.76,0,0,0-13.82-2.61,34.43,34.43,0,0,0-24.88,10.14,33.47,33.47,0,0,0-10.15,24.58v83.23H6915Z" transform="translate(-235.28 -229.61)"/><path class="cls-1" d="M1926.09,1068.79a6.32,6.32,0,0,0-4.28-3,103.16,103.16,0,0,0-18.32-1.48c-11.43,0-28.18,1.71-42.93,9.84a70.65,70.65,0,0,0-6.74,4.31,205.73,205.73,0,0,0,9.14-48.74c6.36-2.57,22.3-10.09,31.37-24.45,11.38-18.09,7.07-39.33,6.88-40.22a6.35,6.35,0,0,0-7.52-4.93,5.71,5.71,0,0,0-.71.19c-.92.29-22.76,7.58-34,25.34q-1.11-4.64-2.4-8.73c4.29-9.32,20.51-50.1,1.62-97.33-6.94-17.33-15.16-32.31-23.26-46.72,6-5.31,16.74-16.62,20.46-31.49,5.2-20.73-5.5-39.58-6-40.38a6.41,6.41,0,0,0-8.77-2.29l-.53.35c-.79.58-19.35,14.36-24.47,34.83-.16.58-.24,1.16-.36,1.74-5.5-12.38-9.25-24.76-10-38.08,8.06-5.62,11.45-15.35,11.89-16.67a6.39,6.39,0,0,0-.83-5.55A16.6,16.6,0,1,0,1787.24,747a30.1,30.1,0,0,1-5-3.2c-6.5-5.09-15.32-21.15-25.53-39.73-6.32-11.51-13.54-24.61-21.85-38.14,6.73-8.16,21.85-29.12,23.47-54,2.07-31.61-18.59-56.3-19.47-57.35a6.38,6.38,0,0,0-9.5-.24c-1,1.06-24.59,26.29-26.65,57.63a68.31,68.31,0,0,0,0,8.82,210.37,210.37,0,0,0-37.66-35.36c1.3-6.78,3.72-24.93-3.75-40.83-9.34-19.86-30.09-27.87-31-28.2a6.39,6.39,0,0,0-8.23,3.74c-.08.21-.14.42-.2.64-.25,1-6,24,3.16,43.56,0,.09.1.18.14.27-3.22-1.12-6.36-2.11-9.36-2.93-5.62-8.74-32-45.52-83.43-55.3-18.91-3.6-36.52-4.78-53.52-5.74-1.29-8-5.09-23.75-16-35.25-15-15.93-37.26-17.09-38.19-17.13a6.35,6.35,0,0,0-6.67,6,6.43,6.43,0,0,0,0,.76c.06,1,1.73,24.67,16.58,40.4.58.6,1.16,1.14,1.76,1.71-15.37-2.29-29.52-6.37-42.62-14.62-2.25-1.42-4.27-2.8-6.09-4.13,5.52-6.16,8.61-12.38,9.06-18.63a22.28,22.28,0,0,0-.75-7.45,16.57,16.57,0,0,0-7.3-12.4,22.14,22.14,0,0,0-21.08,0,16.51,16.51,0,0,0-7.29,12.4,21.29,21.29,0,0,0-.75,7.45c.44,6.25,3.53,12.47,9,18.63-1.82,1.33-3.84,2.71-6.09,4.13-13.11,8.25-27.26,12.33-42.6,14.62.58-.57,1.18-1.11,1.74-1.71,14.85-15.73,16.53-39.4,16.58-40.4a6.35,6.35,0,0,0-5.9-6.77,6.26,6.26,0,0,0-.75,0c-.94,0-23.15,1.2-38.2,17.13-10.86,11.5-14.65,27.21-15.94,35.25-17,1-34.62,2.14-53.52,5.74-51.48,9.78-77.81,46.56-83.44,55.3-3,.82-6.13,1.81-9.37,2.93,0-.09.11-.18.15-.27,9.2-19.58,3.41-42.58,3.17-43.56a6.4,6.4,0,0,0-7.81-4.58c-.21.06-.42.12-.63.2-.88.33-21.62,8.34-31,28.2-7.48,15.9-5.06,34.07-3.76,40.83a210.65,210.65,0,0,0-37.65,35.36,68.31,68.31,0,0,0,0-8.82c-2-31.34-25.63-56.57-26.64-57.63a6.39,6.39,0,0,0-9-.27,5.79,5.79,0,0,0-.48.51c-.88,1-21.54,25.74-19.48,57.35,1.63,24.84,16.76,45.8,23.48,54-8.3,13.53-15.53,26.63-21.85,38.14-10.22,18.58-19,34.64-25.52,39.73a32.38,32.38,0,0,1-5,3.2,16.6,16.6,0,1,0-29.15-11.66,6.36,6.36,0,0,0-.83,5.55c.43,1.32,3.82,11.05,11.88,16.67-.7,13.32-4.45,25.69-10,38.08-.11-.58-.2-1.16-.35-1.76-5.14-20.45-23.68-34.23-24.47-34.81a6.43,6.43,0,0,0-9,1.42c-.12.17-.23.34-.34.52-.46.8-11.16,19.65-6,40.38,3.72,14.87,14.51,26.18,20.45,31.49-8.09,14.41-16.31,29.39-23.24,46.72-18.91,47.23-2.68,88,1.61,97.33-.86,2.75-1.67,5.64-2.4,8.71-11.25-17.74-33.08-25-34-25.32a6.31,6.31,0,0,0-5.18.52,6.38,6.38,0,0,0-3,4.22c-.2.89-4.5,22.13,6.89,40.22,9.06,14.36,25,21.88,31.36,24.45a205.21,205.21,0,0,0,9.13,48.74,67.11,67.11,0,0,0-6.74-4.33c-14.74-8.11-31.48-9.82-42.92-9.82a103.16,103.16,0,0,0-18.32,1.48,6.38,6.38,0,0,0-5.07,7.45c0,.23.1.45.17.67.39,1.29,9.82,31.18,36.85,46.07,14.75,8.13,31.48,9.83,42.93,9.83a112.47,112.47,0,0,0,13.48-.78c6.73,13.84,13.66,26.58,19.77,37.76,7.22,13.22,13.68,25.09,16.94,33.63a21.52,21.52,0,0,0-2.5.57c-12.51,3.83-17.45,18-18,19.65a6.35,6.35,0,0,0,.83,5.56A16.6,16.6,0,1,0,969,1214.56a30.1,30.1,0,0,1,5,3.2c6.49,5.09,15.3,21.13,25.52,39.72,6.32,11.49,13.55,24.62,21.85,38.14-6.72,8.17-21.85,29.13-23.48,53.94-2.06,31.62,18.6,56.31,19.48,57.36a6.43,6.43,0,0,0,4.7,2.25h.18a6.27,6.27,0,0,0,4.62-2c1-1.06,24.6-26.31,26.64-57.63a68.31,68.31,0,0,0,0-8.82,210.53,210.53,0,0,0,37.65,35.34c-1.3,6.78-3.72,24.94,3.76,40.85,9.34,19.83,30.08,27.85,31,28.2a6.45,6.45,0,0,0,2.26.4,6.24,6.24,0,0,0,2.93-.73,6.37,6.37,0,0,0,3.25-4c.24-1,6-24-3.17-43.58l-.15-.27c3.24,1.14,6.34,2.09,9.35,2.9,5.59,8.73,31.94,45.56,83.46,55.36,18.9,3.58,36.51,4.76,53.52,5.73,1.29,8,5.08,23.72,15.94,35.25,15,15.92,37.26,17.09,38.2,17.12h.37a6.37,6.37,0,0,0,6.37-6.37h0a6.61,6.61,0,0,0-.19-1.6c-.51-5.11-3.32-25.27-16.48-39.19-.56-.62-1.16-1.15-1.75-1.71,15.35,2.29,29.5,6.36,42.61,14.62,2.25,1.41,4.27,2.78,6.09,4.12-5.52,6.16-8.61,12.38-9,18.62a21.43,21.43,0,0,0,.75,7.47,18,18,0,0,0,35.67,0,22.17,22.17,0,0,0,.75-7.47c-.45-6.24-3.54-12.46-9.06-18.62,1.82-1.34,3.84-2.71,6.09-4.12,13.1-8.26,27.25-12.33,42.62-14.62-.6.56-1.2,1.09-1.76,1.71-14.85,15.72-16.52,39.39-16.58,40.39a6.37,6.37,0,0,0,5.93,6.77h.73c.93,0,23.14-1.2,38.19-17.12,10.86-11.53,14.66-27.23,15.94-35.25,17-1,34.62-2.15,53.53-5.73,51.51-9.8,77.86-46.63,83.45-55.36,3-.81,6.11-1.76,9.34-2.9,0,.1-.1.2-.14.3-9.2,19.55-3.41,42.56-3.16,43.55a6.46,6.46,0,0,0,6.18,4.73,6.63,6.63,0,0,0,2.25-.4c.88-.35,21.63-8.37,31-28.2,7.47-15.91,5-34.07,3.75-40.85a210.26,210.26,0,0,0,37.66-35.34,68.31,68.31,0,0,0,0,8.82c2.06,31.32,25.64,56.57,26.65,57.63a6.31,6.31,0,0,0,4.64,2h.16a6.43,6.43,0,0,0,4.7-2.25c.88-1,21.54-25.74,19.47-57.36-1.62-24.81-16.74-45.77-23.47-53.94,8.31-13.52,15.53-26.65,21.85-38.14,10.21-18.59,19-34.63,25.53-39.72a30.87,30.87,0,0,1,5-3.22,16.61,16.61,0,1,0,29.16,11.67,6.42,6.42,0,0,0,.83-5.56c-.54-1.6-5.48-15.82-18-19.65a21.52,21.52,0,0,0-2.5-.57c3.25-8.54,9.72-20.41,16.92-33.63,6.11-11.18,13.06-23.92,19.77-37.76a112.64,112.64,0,0,0,13.49.78c11.44,0,28.19-1.7,42.93-9.83,27-14.89,36.46-44.78,36.85-46.07A6.35,6.35,0,0,0,1926.09,1068.79Zm-56.39-76.23c5.13-8.14,13.57-13.64,19.71-16.8,0,6.18-1,15-5.89,22.71-5.14,8.14-13.57,13.63-19.69,16.81,0-6.21,1-15,5.87-22.72ZM1828,797c2.34-9.34,8.66-17.22,13.49-22.12,2,5.87,3.7,14.5,1.48,23.43-2.34,9.34-8.67,17.2-13.51,22.12C1827.54,814.56,1825.81,805.91,1828,797Zm-91.62-91.77a56,56,0,0,1-6.47.4,40.66,40.66,0,0,1-17.84-3.78c-9.1-4.4-15.76-12.6-19.7-18.55a55.54,55.54,0,0,1,6.45-.38,40.63,40.63,0,0,1,17.86,3.78c9.13,4.4,15.79,12.58,19.74,18.53Zm-20.93-92.37c1.22-18.44,11.73-35,18.17-43.58,5.26,8.36,13.13,24.05,12,41.87-1.19,18.27-11.53,34.7-18,43.34l-3-4.62c-4.84-8.87-10.1-22.11-9.13-37ZM1633,532.12c5.43,3.4,12.64,9.24,16.76,18,4.28,9.13,4.33,19.69,3.64,26.78-5.45-3.42-12.68-9.27-16.76-17.91-4.26-9.18-4.29-19.76-3.6-26.87Zm-99.64-9.2c-4.79,8.64-14.75,23.09-31,30.65-8.81,4.11-19.37,6.2-31.37,6.2a108.66,108.66,0,0,1-15.6-1.16c4.76-8.62,14.69-23,31-30.63,8.81-4.11,19.36-6.2,31.36-6.2a107.8,107.8,0,0,1,15.65,1.14ZM1432.24,462.4c6.24,1.56,14.94,4.85,21.51,11.8,6.92,7.34,10.25,17.38,11.8,24.32-6.24-1.54-14.94-4.85-21.51-11.79C1437.12,479.38,1433.79,469.36,1432.24,462.4Zm-129.43,11.82c6.59-7,15.29-10.27,21.55-11.82-1.56,7-4.87,16.94-11.84,24.33-6.58,6.94-15.29,10.25-21.53,11.79C1292.53,491.6,1295.85,481.6,1302.81,474.22Zm-64.1,47.56c12,0,22.55,2.09,31.36,6.2,16.2,7.56,26.18,22,31,30.65a111.31,111.31,0,0,1-15.58,1.14h0c-12,0-22.56-2.09-31.37-6.2-16.2-7.56-26.16-22-31-30.65a109.85,109.85,0,0,1,15.59-1.14Zm-132,28.3c4.08-8.67,11.34-14.52,16.79-17.92.69,7.07.66,17.61-3.66,26.79-4.09,8.64-11.33,14.49-16.77,17.91-.66-7.09-.63-17.65,3.66-26.78Zm-95.79,61.07c-1.18-17.84,6.71-33.54,12-41.89,6.43,8.55,16.93,25.09,18.15,43.6,1,14.94-4.4,28.34-9.26,37.21-1,1.47-1.93,2.93-2.88,4.42-6.47-8.64-16.8-25.07-18-43.34Zm28.9,75.55a40.63,40.63,0,0,1,17.86-3.78,56,56,0,0,1,6.47.38c-3.92,6-10.57,14.11-19.71,18.55a40.8,40.8,0,0,1-17.84,3.78,54.1,54.1,0,0,1-6.49-.4c3.94-5.93,10.59-14.09,19.73-18.53ZM913.56,798.31c-2.21-8.84-.47-17.51,1.49-23.42,4.84,4.93,11.13,12.78,13.48,22.11,2.21,8.84.45,17.51-1.5,23.4C922.19,815.49,915.89,807.63,913.56,798.31Zm-40.5,200.18c-4.87-7.73-5.91-16.53-5.88-22.73,6.12,3.15,14.53,8.62,19.68,16.8,4.85,7.73,5.89,16.51,5.87,22.72C886.6,1012.1,878.18,1006.61,873.06,998.49Zm36.57,118.57c-10,0-24.4-1.42-36.77-8.24-15-8.29-23.72-22.74-27.84-31.42,2.31-.16,5-.3,8.05-.3,9.95,0,24.4,1.43,36.77,8.25,12.68,7,20.81,18.31,25.52,26.9.65,1.51,1.32,3,2,4.51a75.26,75.26,0,0,1-7.73.3Zm40.3,7.79c1.08-9,5.8-16.52,9.72-21.34,2.77,6.33,5.86,15.89,4.74,25.45-1.08,9-5.8,16.51-9.73,21.35C951.9,1144,948.81,1134.42,949.93,1124.85Zm70.22,131.48a51.91,51.91,0,0,1,6.47-.4,40.4,40.4,0,0,1,17.84,3.8c9.08,4.38,15.75,12.58,19.69,18.54a55.54,55.54,0,0,1-6.45.38,40.51,40.51,0,0,1-17.86-3.8C1030.75,1270.47,1024.09,1262.27,1020.15,1256.33Zm20.92,92.39c-1.22,18.41-11.72,35-18.17,43.58-5.26-8.37-13.14-24.06-12-41.89,1.19-18.25,11.52-34.71,18-43.32l3,4.62c4.87,8.85,10.1,22.1,9.17,37Zm82.43,80.74c-5.44-3.4-12.66-9.24-16.77-18-4.29-9.14-4.32-19.7-3.64-26.81,5.43,3.38,12.64,9.22,16.76,17.94,4.3,9.16,4.33,19.74,3.65,26.87Zm99.64,9.19c4.78-8.63,14.75-23.08,30.94-30.65,8.81-4.1,19.37-6.2,31.37-6.2a105.9,105.9,0,0,1,15.61,1.17c-4.77,8.6-14.7,23-31,30.63-8.81,4.11-19.35,6.18-31.36,6.18a108,108,0,0,1-15.56-1.13Zm101.19,60.52c-6.25-1.56-14.94-4.87-21.51-11.79C1295.9,1480,1292.57,1470,1291,1463c6.25,1.57,14.94,4.86,21.51,11.82,6.93,7.36,10.26,17.39,11.82,24.35Zm129.42-11.79c-6.57,6.94-15.29,10.23-21.53,11.79,1.54-6.94,4.85-16.94,11.82-24.32,6.58-7,15.29-10.25,21.54-11.82-1.58,7-4.87,17-11.83,24.35Zm64.11-47.6c-12,0-22.56-2.07-31.37-6.18-16.19-7.56-26.18-22-31-30.65a108.37,108.37,0,0,1,15.58-1.15c12,0,22.56,2.1,31.37,6.2,16.2,7.59,26.17,22,31,30.65a108.35,108.35,0,0,1-15.58,1.13Zm132-28.29c-4.08,8.66-11.33,14.51-16.78,17.93-.69-7.07-.67-17.62,3.65-26.8,4.09-8.65,11.32-14.49,16.77-17.91.66,7.09.61,17.64-3.67,26.78Zm95.8-61.08c1.16,17.83-6.71,33.54-12,41.9-6.45-8.54-16.93-25.08-18.16-43.59-1-15,4.4-28.36,9.27-37.21,1-1.48,1.92-3,2.88-4.42,6.45,8.61,16.79,25.07,18,43.32Zm-28.91-75.56a40.48,40.48,0,0,1-17.86,3.8,51.63,51.63,0,0,1-6.46-.4c3.9-5.92,10.56-14.1,19.7-18.52a40.44,40.44,0,0,1,17.85-3.8,52.11,52.11,0,0,1,6.49.4c-4,5.94-10.61,14.11-19.75,18.52Zm57.69-67.13c-7.8,6.09-15.6,19.58-25.84,38.17l-.24-.1a63.88,63.88,0,0,0-18.38-2.64,53.33,53.33,0,0,0-23.41,5.07c-19.48,9.44-29.45,31-29.86,31.89a6.36,6.36,0,0,0,3.16,8.43,6,6,0,0,0,.66.26,64.12,64.12,0,0,0,18.36,2.62,53.28,53.28,0,0,0,23.43-5.08,48.42,48.42,0,0,0,5-2.85q-2.94,4.93-6.07,9.93a88.93,88.93,0,0,0-7.55,11.56c-20,29.67-45.56,58.79-78.67,74.17-35.39,16.42-64.19,15.2-77.07-3.23a30.9,30.9,0,0,1-4.16-8.66,16.64,16.64,0,1,0-3-29.3c-.11.07-.2.18-.31.25a6.31,6.31,0,0,0-3.56,1.69c-9.8,9.78-9.55,28.82.58,43.31,4.2,6,17,20.25,43.57,20.25,2,0,4.14-.13,6.3-.31a119.5,119.5,0,0,1-50,34.7c-3.85-8.27-16-30.43-39.51-41.41-10.52-4.91-22.88-7.4-36.77-7.4a115.94,115.94,0,0,0-26.58,3,6.49,6.49,0,0,0-4.06,3.25,6.38,6.38,0,0,0-.28,5.2c.48,1.28,12.2,31.25,40.9,44.65,2,.93,4.08,1.68,6.18,2.44-4.51.29-9,.54-13.41.78-31.21,1.75-60.7,3.4-86.76,19.82a103.56,103.56,0,0,0-8.82,6.2q-4.24-3.32-8.81-6.2c-26.07-16.42-55.56-18.07-86.77-19.82-4.43-.24-8.89-.49-13.42-.78,2.11-.76,4.22-1.51,6.2-2.44,28.7-13.4,40.41-43.37,40.89-44.65a6.3,6.3,0,0,0-.29-5.2,6.37,6.37,0,0,0-4-3.25,116.09,116.09,0,0,0-26.59-3c-13.89,0-26.26,2.49-36.77,7.4-23.54,11-35.65,33.13-39.51,41.41a120.33,120.33,0,0,1-49.93-34.7c2.15.2,4.25.31,6.25.31,26.58,0,39.37-14.22,43.58-20.25,10.12-14.49,10.37-33.53.57-43.31a6.22,6.22,0,0,0-3.56-1.69c-.12-.07-.19-.18-.31-.25a16.65,16.65,0,1,0-3,29.3,31,31,0,0,1-4.16,8.66c-12.88,18.43-41.69,19.65-77.08,3.23-33.11-15.38-58.65-44.5-78.67-74.17a89.84,89.84,0,0,0-7.53-11.56c-2.1-3.35-4.11-6.66-6.09-9.93a48.42,48.42,0,0,0,5,2.85,53.24,53.24,0,0,0,23.42,5.08,64.26,64.26,0,0,0,18.38-2.62,6.43,6.43,0,0,0,3.84-3.49,6.33,6.33,0,0,0-.05-5.2c-.4-.93-10.36-22.45-29.85-31.89a53.32,53.32,0,0,0-23.4-5.07,64,64,0,0,0-18.39,2.64l-.23.1c-10.24-18.59-18-32.08-25.85-38.17a41.18,41.18,0,0,0-8.25-5.09c-2.24-9.15-8.49-21.15-16.85-36.51h.07c.71-.59,17.43-14.42,20-35.62,2.47-21-10-40.43-10.49-41.23a6.39,6.39,0,0,0-8.84-1.89c-.19.12-.37.26-.55.4-.71.58-17.41,14.4-19.94,35.59a44.77,44.77,0,0,0-.29,4.91c-1.54-3.11-3.07-6.25-4.59-9.45a89.79,89.79,0,0,0-5.52-12.25c-13.81-31.89-24.29-68-19.56-103.14,5.06-37.45,21.06-60.34,42.81-61.23a29.79,29.79,0,0,1,9.11,1,16.17,16.17,0,1,0,25.69,12.89,6.33,6.33,0,0,0,.63-4.35c-2.91-13.25-18.53-23-36-22.34-7.66.31-28.19,3.78-42.38,30.07A116.35,116.35,0,0,1,905,901.1a90.64,90.64,0,0,0,11.87.76h0c11.23,0,27.75-2,42.68-11.45C985.4,874,996,842.07,996.4,840.72a6.4,6.4,0,0,0-.56-5.18,6.5,6.5,0,0,0-4.22-3,83.58,83.58,0,0,0-15.39-1.3c-11.25,0-27.78,2-42.71,11.47-1.54,1-3,2-4.45,3.09q2.92-5.29,5.86-10.47c13.63-24.2,26.53-47.2,28.81-73.87,5.89-.07,12.06-2.6,18.41-7.56,7.81-6.11,15.61-19.6,25.85-38.18l.23.11a65,65,0,0,0,18.39,2.62,53.53,53.53,0,0,0,23.4-5c19.49-9.46,29.45-31,29.85-31.89a6.33,6.33,0,0,0,.05-5.2,6.43,6.43,0,0,0-3.84-3.51,65,65,0,0,0-18.38-2.62,53.37,53.37,0,0,0-23.42,5.07,48.67,48.67,0,0,0-5,2.88c2-3.29,4-6.6,6.09-9.93a91.63,91.63,0,0,0,7.53-11.56c20-29.67,45.56-58.81,78.68-74.18,35.38-16.43,64.19-15.21,77.07,3.24a30.92,30.92,0,0,1,4.16,8.64,16.65,16.65,0,1,0,3,29.3,2.42,2.42,0,0,0,.31-.25,6.08,6.08,0,0,0,3.56-1.68c9.8-9.79,9.55-28.81-.57-43.32-4.53-6.49-19-22.41-49.87-20a119.94,119.94,0,0,1,50-34.69c3.85,8.29,16,30.44,39.51,41.44,10.51,4.9,22.88,7.39,36.77,7.39h0a117.21,117.21,0,0,0,26.59-3,6.37,6.37,0,0,0,4-3.28,6.25,6.25,0,0,0,.29-5.18c-.48-1.27-12.19-31.25-40.89-44.65-2-.92-4.09-1.69-6.2-2.43q6.8-.43,13.42-.8c31.21-1.73,60.7-3.38,86.77-19.82a105.48,105.48,0,0,0,8.81-6.18,105.64,105.64,0,0,0,8.82,6.18c26.06,16.44,55.55,18.09,86.76,19.82q6.64.38,13.41.8c-2.1.74-4.21,1.51-6.18,2.43-28.7,13.4-40.42,43.38-40.9,44.65a6.33,6.33,0,0,0,.28,5.18,6.47,6.47,0,0,0,4.06,3.28,117.12,117.12,0,0,0,26.58,3c13.89,0,26.25-2.49,36.77-7.39,23.54-11,35.66-33.13,39.5-41.44a120.49,120.49,0,0,1,49.93,34.69c-30.85-2.44-45.29,13.47-49.81,20C1537.4,593,1537.15,612,1547,621.76a6.08,6.08,0,0,0,3.56,1.68l.31.25a16.65,16.65,0,1,0,3-29.3,30.79,30.79,0,0,1,4.16-8.64c12.88-18.45,41.69-19.67,77.07-3.24,33.11,15.37,58.66,44.51,78.67,74.16a89.15,89.15,0,0,0,7.55,11.58q3.13,5,6.07,9.93a48.67,48.67,0,0,0-5-2.88,53.37,53.37,0,0,0-23.42-5.07,64.83,64.83,0,0,0-18.36,2.62,6.4,6.4,0,0,0-4.06,8.09,6.62,6.62,0,0,0,.24.62c.41.91,10.38,22.43,29.86,31.89a53.61,53.61,0,0,0,23.41,5,65,65,0,0,0,18.38-2.62l.24-.11c10.24,18.58,18,32.07,25.84,38.18,6.36,5,12.53,7.49,18.41,7.56,2.27,26.67,15.19,49.67,28.82,73.87q2.91,5.17,5.86,10.47c-1.45-1.07-2.92-2.11-4.45-3.09-14.94-9.47-31.47-11.47-42.72-11.47a83.47,83.47,0,0,0-15.38,1.3,6.39,6.39,0,0,0-5,7.55c0,.23.11.45.18.67.45,1.35,11,33.31,36.81,49.69,14.92,9.47,31.45,11.45,42.69,11.45a90.33,90.33,0,0,0,11.85-.76,116.53,116.53,0,0,1-2.17,58.34c-14.18-26.26-34.68-29.71-42.35-30-17.39-.74-33,9.09-36,22.34a6.44,6.44,0,0,0,.64,4.35,16.17,16.17,0,1,0,25.71-12.89,29.7,29.7,0,0,1,9.1-1c21.74.89,37.75,23.78,42.81,61.23,4.74,35.13-5.76,71.25-19.55,103.14a85.83,85.83,0,0,0-5.53,12.25c-1.53,3.2-3.06,6.34-4.6,9.45a44.77,44.77,0,0,0-.29-4.91c-2.52-21.19-19.23-35-19.93-35.59a6.37,6.37,0,0,0-9.37,1.49c-.52.8-13,20.27-10.48,41.23,2.51,21.2,19.22,35,19.94,35.62h.07c-8.35,15.36-14.61,27.36-16.85,36.51a40.86,40.86,0,0,0-8.31,5ZM911.85,888.94c4.32-9.51,13.52-26,28.52-35.49,14.7-9.33,31.48-9.89,40.91-9.33-4.34,9.51-13.54,26-28.53,35.51-12.33,7.81-26.29,9.45-35.83,9.45h0C915.07,889.08,913.37,889,911.85,888.94Zm932.87,0c-9.41.56-26.19,0-40.91-9.31-15-9.53-24.19-26-28.52-35.51,9.41-.56,26.19,0,40.91,9.33C1831.2,863,1840.39,879.43,1844.72,888.94Zm-42.82,261.37c-3.92-4.82-8.65-12.31-9.73-21.35-1.12-9.56,2-19.14,4.74-25.45,3.93,4.82,8.65,12.31,9.72,21.34C1807.76,1134.42,1804.67,1144,1801.9,1150.31Zm81.8-41.49c-12.37,6.82-26.82,8.24-36.77,8.24-2.88,0-5.48-.11-7.72-.3.7-1.56,1.41-3.14,2.1-4.74,4.71-8.55,12.78-19.71,25.41-26.67,12.37-6.82,26.83-8.25,36.77-8.25,3,0,5.74.14,8,.3-4.06,8.69-12.76,23.15-27.79,31.42Z" transform="translate(-235.28 -229.61)"/><path class="cls-1" d="M1746.33,769.37,1381.47,558.72a6.33,6.33,0,0,0-6.38,0L1010.23,769.38a6.37,6.37,0,0,0-3.18,5.53v421.28a6.43,6.43,0,0,0,3.18,5.55l131.06,75.64,14.25,8.24q.21-6.76.47-14.47c2.86-85.87,8.51-221.27,9.19-234.32,1-17.85-10.81-21.78-12.15-22.18l-.77-.22h-.81c-10.29-.63-18.47-4-24.3-10-10.15-10.45-9.86-25.59-9.85-26V941.87c0-32.92.81-63.82,2.3-87,.73-11.25,1.57-20.09,2.5-26.27a57.8,57.8,0,0,1,1.17-6.14c1,3.21,2.24,10.21,3.41,25.34,1.5,19.72,2.3,47.36,2.3,79.88a15.18,15.18,0,0,0,4,10.67,9.7,9.7,0,0,0,6.83,3c6,0,10.8-6,10.83-13.67,0-32.42.8-60,2.3-79.88,1.21-15.8,2.55-22.73,3.54-25.74,1,3,2.33,10,3.53,25.74,1.51,19.76,2.31,47.39,2.33,79.86-.06,7.49,4.79,13.64,10.86,13.69s10.79-6,10.83-13.67c0-32.42.79-60,2.31-79.88,1.2-15.8,2.53-22.73,3.53-25.74,1,3,2.32,10,3.54,25.74,1.5,19.87,2.31,47.5,2.3,79.88A16.14,16.14,0,0,0,1198,936a10.23,10.23,0,0,0,8.64,5.33c6,0,10.8-6,10.84-13.65,0-32.44.8-60.07,2.3-79.9,1.16-15.13,2.41-22.13,3.4-25.34a58.65,58.65,0,0,1,1.17,6.16c.93,6.16,1.78,15,2.51,26.25,1.48,23.29,2.29,54.19,2.3,87V978.8c0,.14.25,15.2-9.87,25.59-5.81,6-14,9.37-24.26,10h-.87l-.84.27c-2.17.68-13,4.93-12.06,22.15.75,14.07,7.36,177.81,9.91,254.59.2,5.72.37,10.78.5,15l14.82,8.54,139.34,80.47,14.25,8.23c.14-4.21.3-9.09.48-14.47,2.72-81.77,9.67-256.15,10.45-271.13.85-16.2-8.49-21.44-11.67-22.76l-1-.35h-.07c-30.31-11.26-48.4-44.31-48.4-88.43,0-61.23,43.74-118.73,70.12-118.73,13,0,30.5,14.21,44.72,36.25,16.14,25,25.4,55,25.4,82.48,0,44.14-18.11,77.17-48.4,88.43l-1.35.51c-2.88,1.21-12.23,6.43-11.38,22.63.78,14.89,7.62,186,10.39,269.17.18,5.36.35,10.2.48,14.47l14.26-8.24,162.69-93.93,14.51-8.38V1140.8l-6.59-.62c-21.42-2-34.21-7.33-34.21-14.27,0-44.41.09-87.86,1.1-131,.5-21.12,1.15-43.89,2.49-67.1.26-4.75.47-9.51.68-14.27.41-9.55.83-19.44,1.77-29,1.62-16.51,4.34-29.78,8.53-41.78,2.08-6,4.64-12.78,8.66-18.78,4.61-6.87,9.17-10.49,13.29-10.71.9,0,21.81.6,24.06,42.72l.25,193.22.22,7v223.36l14.5-8.4,120.25-69.39a6.43,6.43,0,0,0,3.19-5.55V774.89A6.41,6.41,0,0,0,1746.33,769.37Zm-9.59,423.15-110.66,63.88V1049.21l-.2-7.26-.25-186.16v-.38c-2.87-55.06-34.92-56.66-38.56-56.66h-.51c-9.2.49-17.57,6.26-24.86,17.15-5,7.43-7.91,15.27-10.29,22.05-4.59,13.12-7.53,27.47-9.27,45.16-1,10-1.42,20.09-1.84,29.83-.2,4.69-.4,9.4-.66,14.07-1.35,23.47-2,47.34-2.52,67.58-1,43.26-1.09,86.8-1.09,131.31,0,15,13.72,24.36,40.8,28v131l-163.17,94.21c-2.93-87.57-9.38-247.17-10.15-261.7-.28-5.38,1.17-7.94,2.36-8.45l.49-.18-2.55-6.8,3,6.63c36.24-13.43,57.87-51.57,57.87-102,0-30.16-10.1-63.1-27.71-90.37-17.35-26.85-38.62-42.87-56.92-42.87-36.16,0-84.62,65.87-84.62,133.24,0,50.45,21.61,88.59,57.79,102l.89.33c1.32.62,2.72,3.2,2.45,8.47-.77,14.62-7.33,177-10.2,263.66L1206,1300c-2.24-67.27-9.43-248.9-10.22-263.9-.24-4.49.85-6.62,1.59-7.31,13.34-1.09,24.23-5.89,32.36-14.25,14.51-14.94,14-35.34,14-35.94V941.87c0-33.14-.83-64.39-2.34-88-.76-11.65-1.64-20.9-2.63-27.47s-3.07-20.28-15.41-20.28c-11.2,0-14.74,9.63-16.67,26.07-1.93-16.44-5.48-26.06-16.69-26.06s-14.76,9.62-16.69,26.06c-2-16.44-5.47-26.06-16.7-26.07s-14.76,9.63-16.69,26.08c-1.93-16.45-5.46-26.07-16.71-26.07-12.29,0-14.37,13.68-15.38,20.27s-1.87,15.82-2.63,27.49c-1.49,23.51-2.32,54.76-2.32,88V978.2c-.07,2.16-.26,21.69,14,36.32,8.13,8.36,19,13.14,32.33,14.25.81.75,1.85,2.89,1.62,7.31-.67,12.75-6,138.84-9,226.83l-121.95-70.41V778.58l358.46-207,358.46,207Z" transform="translate(-235.28 -229.61)"/><path class="cls-1" d="M1385.59,787.07a6.67,6.67,0,0,1-5.53-3c-51.92-78.37-.4-148.07.13-148.76a6.53,6.53,0,0,1,5.6-2.62,6.65,6.65,0,0,1,5.32,3.14c40.62,66.25,2.05,144.28.38,147.55A6.56,6.56,0,0,1,1386,787ZM1385,652.4c-10.23,18.41-28,62.59-.5,113.44C1392.58,744.17,1405.86,695.87,1385,652.4Z" transform="translate(-235.28 -229.61)"/><path class="cls-2" d="M1371,822.27h-.56c-83.58-7.13-86.52-83.41-86.55-84.17A6.63,6.63,0,0,1,1286,733a6.72,6.72,0,0,1,5.27-1.68c68.19,8.35,86,82.09,86.13,82.83a6.61,6.61,0,0,1-4.94,7.94,7.08,7.08,0,0,1-1.52.17ZM1298.06,746c3,16.67,15,53.39,63.55,61.83C1355.37,790.55,1337.92,755,1298.06,746Z" transform="translate(-235.28 -229.61)"/><path class="cls-3" d="M1385,848.65a6.62,6.62,0,0,1-6.62-6.62,6.43,6.43,0,0,1,.22-1.69c17-64.34,67.48-71.34,88.4-71.34a67.61,67.61,0,0,1,9.43.55,6.6,6.6,0,0,1,5.38,8.47c-19.94,65.76-95.63,70.59-96.4,70.63Zm81.17-66.39c-17.15.16-55.25,6-71.8,51.92,18.08-3.18,56.06-14.27,71.83-51.92Z" transform="translate(-235.28 -229.61)"/></g></svg>